<svg width="1237" height="1264" viewBox="0 0 1237 1264" fill="none" xmlns="http://www.w3.org/2000/svg">
<circle cx="610" cy="630" r="523" fill="#F5F5F5" stroke="#4ADE80" stroke-width="8"/>
<path d="M1044 630C1044 876.426 849.81 1076 610.5 1076C371.19 1076 177 876.426 177 630C177 383.574 371.19 184 610.5 184C849.81 184 1044 383.574 1044 630Z" fill="#F5F5F5" stroke="#4ADE80" stroke-width="8"/>
<path d="M949 630C949 822.293 797.128 978 610 978C422.872 978 271 822.293 271 630C271 437.707 422.872 282 610 282C797.128 282 949 437.707 949 630Z" fill="#F5F5F5" stroke="#4ADE80" stroke-width="8"/>
<path d="M867 630C867 775.352 752.285 893 611 893C469.715 893 355 775.352 355 630C355 484.648 469.715 367 611 367C752.285 367 867 484.648 867 630Z" fill="#F5F5F5" stroke="#4ADE80" stroke-width="8"/>
<path d="M772 637C772 724.92 702.723 796 617.5 796C532.277 796 463 724.92 463 637C463 549.08 532.277 478 617.5 478C702.723 478 772 549.08 772 637Z" stroke="#4ADE80" stroke-width="8"/>
<path d="M589.839 706.729C589.843 708.941 590.498 711.106 591.727 712.948L597.748 721.98C598.776 723.524 600.171 724.79 601.809 725.666C603.446 726.542 605.275 727 607.132 727H628.871C630.729 727 632.558 726.542 634.195 725.666C635.832 724.79 637.227 723.524 638.256 721.98L644.276 712.948C645.505 711.106 646.162 708.943 646.164 706.729L646.178 693.247H589.822L589.839 706.729ZM556 608.874C556 624.472 561.795 638.703 571.345 649.577C577.165 656.204 586.267 670.048 589.737 681.727C589.751 681.818 589.762 681.91 589.776 682.001H646.224C646.238 681.91 646.249 681.822 646.263 681.727C649.733 670.048 658.835 656.204 664.655 649.577C674.205 638.703 680 624.472 680 608.874C680 574.636 652.139 546.895 617.806 547C581.871 547.109 556 576.169 556 608.874ZM618 580.75C602.461 580.75 589.818 593.367 589.818 608.874C589.818 611.982 587.296 614.499 584.182 614.499C581.068 614.499 578.545 611.982 578.545 608.874C578.545 587.162 596.244 569.5 618 569.5C621.114 569.5 623.636 572.017 623.636 575.125C623.636 578.232 621.114 580.75 618 580.75Z" fill="#F59E0B"/>
<path d="M880.154 902.03C783.031 1000.4 665.749 1060.24 554.78 1077.63C443.811 1095.01 339.446 1069.92 267.476 998.86C195.506 927.798 169.092 823.761 185.066 712.579C201.039 601.399 259.393 483.366 356.516 385.001C453.64 286.636 570.922 226.788 681.89 209.404C792.86 192.02 897.225 217.11 969.195 288.171C1041.17 359.233 1067.58 463.271 1051.61 574.452C1035.63 685.633 977.278 803.665 880.154 902.03Z" stroke="#181B19" stroke-opacity="0.2" stroke-width="8"/>
<path d="M890.903 386.65C980.26 492.121 1029.46 614.251 1036.93 726.325C1044.4 838.4 1010.14 940.126 932.974 1005.5C855.805 1070.88 749.834 1087.96 640.509 1062.18C531.185 1036.4 418.797 967.805 329.44 862.334C240.083 756.864 190.88 634.733 183.413 522.66C175.947 410.585 210.2 308.859 287.369 243.479C364.538 178.1 470.509 161.025 579.835 186.803C689.159 212.58 801.546 281.18 890.903 386.65Z" stroke="#181B19" stroke-opacity="0.2" stroke-width="8"/>
</svg>
