<svg width="184" height="48" viewBox="0 0 184 48" fill="none" xmlns="http://www.w3.org/2000/svg">
<rect width="173" height="48" fill="#F5F5F5"/>
<path d="M4.56 35V23.096H7.272L7.536 24.704C7.92 24.128 8.424 23.672 9.048 23.336C9.688 22.984 10.424 22.808 11.256 22.808C13.096 22.808 14.4 23.52 15.168 24.944C15.6 24.288 16.176 23.768 16.896 23.384C17.632 23 18.432 22.808 19.296 22.808C20.848 22.808 22.04 23.272 22.872 24.2C23.704 25.128 24.12 26.488 24.12 28.28V35H21.048V28.568C21.048 27.544 20.848 26.76 20.448 26.216C20.064 25.672 19.464 25.4 18.648 25.4C17.816 25.4 17.144 25.704 16.632 26.312C16.136 26.92 15.888 27.768 15.888 28.856V35H12.816V28.568C12.816 27.544 12.616 26.76 12.216 26.216C11.816 25.672 11.2 25.4 10.368 25.4C9.552 25.4 8.888 25.704 8.376 26.312C7.88 26.92 7.632 27.768 7.632 28.856V35H4.56ZM29.3646 35L25.8846 23.096H28.9326L30.9966 31.664L33.3966 23.096H36.8046L39.2046 31.664L41.2926 23.096H44.3406L40.8366 35H37.6446L35.1006 26.096L32.5566 35H29.3646ZM49.7734 35.288C48.7494 35.288 47.9094 35.128 47.2534 34.808C46.5974 34.472 46.1094 34.032 45.7894 33.488C45.4694 32.944 45.3094 32.344 45.3094 31.688C45.3094 30.584 45.7414 29.688 46.6054 29C47.4694 28.312 48.7654 27.968 50.4934 27.968H53.5174V27.68C53.5174 26.864 53.2854 26.264 52.8214 25.88C52.3574 25.496 51.7814 25.304 51.0934 25.304C50.4694 25.304 49.9254 25.456 49.4614 25.76C48.9974 26.048 48.7094 26.48 48.5974 27.056H45.5974C45.6774 26.192 45.9654 25.44 46.4614 24.8C46.9734 24.16 47.6294 23.672 48.4294 23.336C49.2294 22.984 50.1254 22.808 51.1174 22.808C52.8134 22.808 54.1494 23.232 55.1254 24.08C56.1014 24.928 56.5894 26.128 56.5894 27.68V35H53.9734L53.6854 33.08C53.3334 33.72 52.8374 34.248 52.1974 34.664C51.5734 35.08 50.7654 35.288 49.7734 35.288ZM50.4694 32.888C51.3494 32.888 52.0294 32.6 52.5094 32.024C53.0054 31.448 53.3174 30.736 53.4454 29.888H50.8294C50.0134 29.888 49.4294 30.04 49.0774 30.344C48.7254 30.632 48.5494 30.992 48.5494 31.424C48.5494 31.888 48.7254 32.248 49.0774 32.504C49.4294 32.76 49.8934 32.888 50.4694 32.888ZM59.5209 35V17.72H62.5929V35H59.5209ZM67.3879 21.248C66.8279 21.248 66.3639 21.08 65.9959 20.744C65.6439 20.408 65.4679 19.984 65.4679 19.472C65.4679 18.96 65.6439 18.544 65.9959 18.224C66.3639 17.888 66.8279 17.72 67.3879 17.72C67.9479 17.72 68.4039 17.888 68.7559 18.224C69.1239 18.544 69.3079 18.96 69.3079 19.472C69.3079 19.984 69.1239 20.408 68.7559 20.744C68.4039 21.08 67.9479 21.248 67.3879 21.248ZM65.8519 35V23.096H68.9239V35H65.8519ZM72.1303 35V23.096H74.8423L75.1063 24.704C75.4903 24.128 75.9943 23.672 76.6183 23.336C77.2583 22.984 77.9943 22.808 78.8263 22.808C80.6663 22.808 81.9703 23.52 82.7383 24.944C83.1703 24.288 83.7463 23.768 84.4663 23.384C85.2023 23 86.0023 22.808 86.8663 22.808C88.4183 22.808 89.6103 23.272 90.4423 24.2C91.2743 25.128 91.6903 26.488 91.6903 28.28V35H88.6183V28.568C88.6183 27.544 88.4183 26.76 88.0183 26.216C87.6343 25.672 87.0343 25.4 86.2183 25.4C85.3863 25.4 84.7143 25.704 84.2023 26.312C83.7063 26.92 83.4583 27.768 83.4583 28.856V35H80.3863V28.568C80.3863 27.544 80.1863 26.76 79.7863 26.216C79.3863 25.672 78.7703 25.4 77.9383 25.4C77.1223 25.4 76.4583 25.704 75.9463 26.312C75.4503 26.92 75.2023 27.768 75.2023 28.856V35H72.1303ZM99.0709 35.288C97.5829 35.288 96.4309 34.824 95.6149 33.896C94.8149 32.968 94.4149 31.608 94.4149 29.816V23.096H97.4629V29.528C97.4629 30.552 97.6709 31.336 98.0869 31.88C98.5029 32.424 99.1589 32.696 100.055 32.696C100.903 32.696 101.599 32.392 102.143 31.784C102.703 31.176 102.983 30.328 102.983 29.24V23.096H106.055V35H103.343L103.103 32.984C102.735 33.688 102.199 34.248 101.495 34.664C100.807 35.08 99.9989 35.288 99.0709 35.288ZM114.999 35V18.2H118.071V25.184H125.607V18.2H128.679V35H125.607V27.68H118.071V35H114.999ZM136.337 35.288C134.849 35.288 133.697 34.824 132.881 33.896C132.081 32.968 131.681 31.608 131.681 29.816V23.096H134.729V29.528C134.729 30.552 134.937 31.336 135.353 31.88C135.769 32.424 136.425 32.696 137.321 32.696C138.169 32.696 138.865 32.392 139.409 31.784C139.969 31.176 140.249 30.328 140.249 29.24V23.096H143.321V35H140.609L140.369 32.984C140.001 33.688 139.465 34.248 138.761 34.664C138.073 35.08 137.265 35.288 136.337 35.288ZM153.53 35.288C152.634 35.288 151.85 35.12 151.178 34.784C150.506 34.448 149.962 33.976 149.546 33.368L149.21 35H146.474V17.72H149.546V24.8C149.93 24.272 150.434 23.808 151.058 23.408C151.698 23.008 152.522 22.808 153.53 22.808C154.65 22.808 155.65 23.08 156.53 23.624C157.41 24.168 158.106 24.912 158.618 25.856C159.13 26.8 159.386 27.872 159.386 29.072C159.386 30.272 159.13 31.344 158.618 32.288C158.106 33.216 157.41 33.952 156.53 34.496C155.65 35.024 154.65 35.288 153.53 35.288ZM152.882 32.6C153.858 32.6 154.666 32.272 155.306 31.616C155.946 30.96 156.266 30.112 156.266 29.072C156.266 28.032 155.946 27.176 155.306 26.504C154.666 25.832 153.858 25.496 152.882 25.496C151.89 25.496 151.074 25.832 150.434 26.504C149.81 27.16 149.498 28.008 149.498 29.048C149.498 30.088 149.81 30.944 150.434 31.616C151.074 32.272 151.89 32.6 152.882 32.6Z" fill="#10B981"/>
</svg>
