<svg width="200" height="50" viewBox="0 0 200 50" fill="none" xmlns="http://www.w3.org/2000/svg">
<rect x="0.5" y="0.5" width="199" height="49" fill="white" stroke="#1E293B"/>
<path d="M41.36 34C40.272 34 39.416 33.736 38.792 33.208C38.168 32.68 37.856 31.728 37.856 30.352V23.8H35.792V22.096H37.856L38.12 19.24H39.872V22.096H43.376V23.8H39.872V30.352C39.872 31.104 40.024 31.616 40.328 31.888C40.632 32.144 41.168 32.272 41.936 32.272H43.184V34H41.36ZM50.9611 34.288C49.8251 34.288 48.8171 34.032 47.9371 33.52C47.0571 32.992 46.3611 32.264 45.8491 31.336C45.3531 30.408 45.1051 29.312 45.1051 28.048C45.1051 26.8 45.3531 25.712 45.8491 24.784C46.3451 23.84 47.0331 23.112 47.9131 22.6C48.8091 22.072 49.8411 21.808 51.0091 21.808C52.1611 21.808 53.1531 22.072 53.9851 22.6C54.8331 23.112 55.4811 23.792 55.9291 24.64C56.3771 25.488 56.6011 26.4 56.6011 27.376C56.6011 27.552 56.5931 27.728 56.5771 27.904C56.5771 28.08 56.5771 28.28 56.5771 28.504H47.0971C47.1451 29.416 47.3531 30.176 47.7211 30.784C48.1051 31.376 48.5771 31.824 49.1371 32.128C49.7131 32.432 50.3211 32.584 50.9611 32.584C51.7931 32.584 52.4891 32.392 53.0491 32.008C53.6091 31.624 54.0171 31.104 54.2731 30.448H56.2651C55.9451 31.552 55.3291 32.472 54.4171 33.208C53.5211 33.928 52.3691 34.288 50.9611 34.288ZM50.9611 23.512C50.0011 23.512 49.1451 23.808 48.3931 24.4C47.6571 24.976 47.2331 25.824 47.1211 26.944H54.6091C54.5611 25.872 54.1931 25.032 53.5051 24.424C52.8171 23.816 51.9691 23.512 50.9611 23.512ZM63.2332 34.288C62.2412 34.288 61.4172 34.12 60.7612 33.784C60.1052 33.448 59.6172 33 59.2972 32.44C58.9772 31.88 58.8172 31.272 58.8172 30.616C58.8172 29.4 59.2812 28.464 60.2092 27.808C61.1372 27.152 62.4012 26.824 64.0012 26.824H67.2172V26.68C67.2172 25.64 66.9452 24.856 66.4012 24.328C65.8572 23.784 65.1292 23.512 64.2172 23.512C63.4332 23.512 62.7532 23.712 62.1772 24.112C61.6172 24.496 61.2652 25.064 61.1212 25.816H59.0572C59.1372 24.952 59.4252 24.224 59.9212 23.632C60.4332 23.04 61.0652 22.592 61.8172 22.288C62.5692 21.968 63.3692 21.808 64.2172 21.808C65.8812 21.808 67.1292 22.256 67.9612 23.152C68.8092 24.032 69.2332 25.208 69.2332 26.68V34H67.4332L67.3132 31.864C66.9772 32.536 66.4812 33.112 65.8252 33.592C65.1852 34.056 64.3212 34.288 63.2332 34.288ZM63.5452 32.584C64.3132 32.584 64.9692 32.384 65.5132 31.984C66.0732 31.584 66.4972 31.064 66.7852 30.424C67.0732 29.784 67.2172 29.112 67.2172 28.408V28.384H64.1692C62.9852 28.384 62.1452 28.592 61.6492 29.008C61.1692 29.408 60.9292 29.912 60.9292 30.52C60.9292 31.144 61.1532 31.648 61.6012 32.032C62.0652 32.4 62.7132 32.584 63.5452 32.584ZM77.7296 34.288C76.5936 34.288 75.5696 34.032 74.6576 33.52C73.7616 32.992 73.0496 32.264 72.5216 31.336C72.0096 30.392 71.7536 29.296 71.7536 28.048C71.7536 26.8 72.0096 25.712 72.5216 24.784C73.0496 23.84 73.7616 23.112 74.6576 22.6C75.5696 22.072 76.5936 21.808 77.7296 21.808C79.1376 21.808 80.3216 22.176 81.2816 22.912C82.2576 23.648 82.8736 24.632 83.1296 25.864H81.0656C80.9056 25.128 80.5136 24.56 79.8896 24.16C79.2656 23.744 78.5376 23.536 77.7056 23.536C77.0336 23.536 76.4016 23.704 75.8096 24.04C75.2176 24.376 74.7376 24.88 74.3696 25.552C74.0016 26.224 73.8176 27.056 73.8176 28.048C73.8176 29.04 74.0016 29.872 74.3696 30.544C74.7376 31.216 75.2176 31.728 75.8096 32.08C76.4016 32.416 77.0336 32.584 77.7056 32.584C78.5376 32.584 79.2656 32.384 79.8896 31.984C80.5136 31.568 80.9056 30.984 81.0656 30.232H83.1296C82.8896 31.432 82.2816 32.408 81.3056 33.16C80.3296 33.912 79.1376 34.288 77.7296 34.288ZM85.9451 34V16.72H87.9611V24.136C88.3611 23.4 88.9291 22.832 89.6651 22.432C90.4011 22.016 91.2011 21.808 92.0651 21.808C93.4411 21.808 94.5451 22.24 95.3771 23.104C96.2091 23.952 96.6251 25.264 96.6251 27.04V34H94.6331V27.256C94.6331 24.776 93.6331 23.536 91.6331 23.536C90.5931 23.536 89.7211 23.912 89.0171 24.664C88.3131 25.4 87.9611 26.456 87.9611 27.832V34H85.9451ZM105.031 34.288C103.895 34.288 102.887 34.032 102.007 33.52C101.127 32.992 100.431 32.264 99.9194 31.336C99.4234 30.408 99.1754 29.312 99.1754 28.048C99.1754 26.8 99.4234 25.712 99.9194 24.784C100.415 23.84 101.103 23.112 101.983 22.6C102.879 22.072 103.911 21.808 105.079 21.808C106.231 21.808 107.223 22.072 108.055 22.6C108.903 23.112 109.551 23.792 109.999 24.64C110.447 25.488 110.671 26.4 110.671 27.376C110.671 27.552 110.663 27.728 110.647 27.904C110.647 28.08 110.647 28.28 110.647 28.504H101.167C101.215 29.416 101.423 30.176 101.791 30.784C102.175 31.376 102.647 31.824 103.207 32.128C103.783 32.432 104.391 32.584 105.031 32.584C105.863 32.584 106.559 32.392 107.119 32.008C107.679 31.624 108.087 31.104 108.343 30.448H110.335C110.015 31.552 109.399 32.472 108.487 33.208C107.591 33.928 106.439 34.288 105.031 34.288ZM105.031 23.512C104.071 23.512 103.215 23.808 102.463 24.4C101.727 24.976 101.303 25.824 101.191 26.944H108.679C108.631 25.872 108.263 25.032 107.575 24.424C106.887 23.816 106.039 23.512 105.031 23.512ZM113.344 34V22.096H115.168L115.336 24.376C115.704 23.592 116.264 22.968 117.016 22.504C117.768 22.04 118.696 21.808 119.8 21.808V23.92H119.248C118.544 23.92 117.896 24.048 117.304 24.304C116.712 24.544 116.24 24.96 115.888 25.552C115.536 26.144 115.36 26.96 115.36 28V34H113.344ZM121.246 34V32.344L127.87 23.776H121.366V22.096H130.126V23.752L123.502 32.32H130.246V34H121.246Z" fill="#1E293B"/>
<rect x="150.5" y="0.5" width="49" height="49" fill="#1E293B" stroke="#1E293B"/>
</svg>
